<svg xmlns="http://www.w3.org/2000/svg" xmlns:xlink="http://www.w3.org/1999/xlink" version="1.1" x="0px" y="0px" viewBox="0 0 500 532.637" enable-background="new 0 0 500 532.637" xml:space="preserve" style="fill: rgb(0, 0, 0);">
<g id="__id486_sdtuupvgrg">
	<path d="M476.924,487.845V291.853c0-3.825-2.971-7.393-6.122-9.556l-34.152-23.576   c-1.918-1.31-4.716-2.708-7.039-2.708h-55.682V42.359c0-3.366-2.362-6.564-4.916-8.759L330.69,1.932   C328.604,0.138,325.486,0,322.733,0H166.809c-3.064,0-6,0.369-8.169,2.544l-37.232,36.751c-2.163,2.169-3.504,4.678-3.504,7.736   v82.448H67.044c-3.048,0-5.975,1.046-8.141,3.186l-34.755,34.518c-2.176,2.176-3.353,5.041-3.353,8.108v313.132   c-5.888,1.893-9.95,5.069-12.536,7.88c-9.173,10.011-8.307,23.917-8.182,25.425c0.52,5.969,5.487,10.909,11.474,10.909h475.826   c6.366,0,12.623-5.531,12.623-11.903C500,503.785,485.748,493.018,476.924,487.845 M210.439,422.409   c0,3.35-2.711,6.077-6.071,6.077h-28.415c-3.356,0-6.077-2.727-6.077-6.077v-48.533c0-3.35,2.721-6.071,6.077-6.071h28.415   c3.359,0,6.071,2.721,6.071,6.071V422.409z M210.439,342.343c0,3.35-2.711,6.07-6.071,6.07h-28.415   c-3.356,0-6.077-2.721-6.077-6.07V293.81c0-3.35,2.721-6.071,6.077-6.071h28.415c3.359,0,6.071,2.721,6.071,6.071V342.343z    M210.439,262.269c0,3.35-2.711,6.071-6.071,6.071h-28.415c-3.356,0-6.077-2.721-6.077-6.071v-48.536   c0-3.35,2.721-6.071,6.077-6.071h28.415c3.359,0,6.071,2.721,6.071,6.071V262.269z M210.439,182.199c0,3.35-2.711,6.07-6.071,6.07   h-28.415c-3.356,0-6.077-2.721-6.077-6.07v-48.53c0-3.35,2.721-6.077,6.077-6.077h28.415c3.359,0,6.071,2.727,6.071,6.077V182.199z    M210.439,102.129c0,3.35-2.711,6.071-6.071,6.071h-28.415c-3.356,0-6.077-2.721-6.077-6.071V53.603   c0-3.359,2.721-6.081,6.077-6.081h28.415c3.359,0,6.071,2.721,6.071,6.081V102.129z M265.575,422.409   c0,3.35-2.714,6.077-6.07,6.077h-28.421c-3.356,0-6.071-2.727-6.071-6.077v-48.533c0-3.35,2.715-6.071,6.071-6.071h28.421   c3.356,0,6.07,2.721,6.07,6.071V422.409z M265.575,342.343c0,3.35-2.714,6.07-6.07,6.07h-28.421c-3.356,0-6.071-2.721-6.071-6.07   V293.81c0-3.35,2.715-6.071,6.071-6.071h28.421c3.356,0,6.07,2.721,6.07,6.071V342.343z M265.575,262.269   c0,3.35-2.714,6.071-6.07,6.071h-28.421c-3.356,0-6.071-2.721-6.071-6.071v-48.536c0-3.35,2.715-6.071,6.071-6.071h28.421   c3.356,0,6.07,2.721,6.07,6.071V262.269z M265.575,182.199c0,3.35-2.714,6.07-6.07,6.07h-28.421c-3.356,0-6.071-2.721-6.071-6.07   v-48.53c0-3.35,2.715-6.077,6.071-6.077h28.421c3.356,0,6.07,2.727,6.07,6.077V182.199z M265.575,102.129   c0,3.35-2.714,6.071-6.07,6.071h-28.421c-3.356,0-6.071-2.721-6.071-6.071V53.603c0-3.359,2.715-6.081,6.071-6.081h28.421   c3.356,0,6.07,2.721,6.07,6.081V102.129z M320.711,422.409c0,3.35-2.715,6.077-6.07,6.077h-28.422c-3.356,0-6.07-2.727-6.07-6.077   v-48.533c0-3.35,2.714-6.071,6.07-6.071h28.422c3.355,0,6.07,2.721,6.07,6.071V422.409z M320.711,342.343   c0,3.35-2.715,6.07-6.07,6.07h-28.422c-3.356,0-6.07-2.721-6.07-6.07V293.81c0-3.35,2.714-6.071,6.07-6.071h28.422   c3.355,0,6.07,2.721,6.07,6.071V342.343z M320.711,262.269c0,3.35-2.715,6.071-6.07,6.071h-28.422c-3.356,0-6.07-2.721-6.07-6.071   v-48.536c0-3.35,2.714-6.071,6.07-6.071h28.422c3.355,0,6.07,2.721,6.07,6.071V262.269z M320.711,182.199   c0,3.35-2.715,6.07-6.07,6.07h-28.422c-3.356,0-6.07-2.721-6.07-6.07v-48.53c0-3.35,2.714-6.077,6.07-6.077h28.422   c3.355,0,6.07,2.727,6.07,6.077V182.199z M320.711,102.129c0,3.35-2.715,6.071-6.07,6.071h-28.422c-3.356,0-6.07-2.721-6.07-6.071   V53.603c0-3.359,2.714-6.081,6.07-6.081h28.422c3.355,0,6.07,2.721,6.07,6.081V102.129z" style="fill: rgb(0, 188, 212);"></path>
</g>
</svg>